<svg width="29" height="29" viewBox="0 0 29 29" fill="none" xmlns="http://www.w3.org/2000/svg">
<circle cx="14.1421" cy="14.1421" r="10" transform="rotate(45 14.1421 14.1421)" fill="#E4E4E4"/>
<path d="M21.4855 14.1426C21.4855 13.8641 21.3748 13.597 21.1779 13.4001C20.981 13.2032 20.7139 13.0925 20.4354 13.0925L15.1834 13.0925L15.1834 7.84043C15.1786 7.56508 15.0659 7.30263 14.8694 7.1096C14.673 6.91657 14.4087 6.80841 14.1333 6.80841C13.8579 6.80841 13.5935 6.91657 13.3971 7.1096C13.2007 7.30263 13.0879 7.56508 13.0832 7.84043L13.0832 13.0925L7.83112 13.0925C7.55577 13.0973 7.29332 13.21 7.10029 13.4064C6.90726 13.6028 6.7991 13.8672 6.7991 14.1426C6.7991 14.418 6.90726 14.6823 7.10029 14.8787C7.29332 15.0752 7.55577 15.1879 7.83112 15.1927L13.0832 15.1927L13.0832 20.4447C13.0879 20.7201 13.2007 20.9825 13.3971 21.1756C13.5935 21.3686 13.8579 21.4767 14.1333 21.4767C14.4087 21.4767 14.673 21.3686 14.8694 21.1756C15.0659 20.9825 15.1786 20.7201 15.1834 20.4447L15.1834 15.1927L20.4354 15.1927C20.7139 15.1926 20.981 15.082 21.1779 14.8851C21.3748 14.6881 21.4855 14.4211 21.4855 14.1426Z" fill="#224170"/>
</svg>
