<svg width="15" height="19" viewBox="0 0 15 19" fill="none" xmlns="http://www.w3.org/2000/svg">
<path d="M12.7235 13.6205V13.8238L12.8653 13.9694L13.917 15.0494C14.1432 15.2817 13.9577 15.6322 13.6963 15.6322H1.32898C1.19742 15.6322 1.09426 15.5568 1.04353 15.4293C0.992232 15.3004 1.01192 15.1568 1.11652 15.0494L2.1682 13.9694L2.30998 13.8238V13.6205V8.59729C2.30998 6.02316 4.07493 3.88484 6.40241 3.36722L6.79386 3.28017V2.87915V1.89961C6.79386 1.46826 7.12867 1.1438 7.51674 1.1438C7.90481 1.1438 8.23962 1.46826 8.23962 1.89961V2.87915V3.28017L8.63107 3.36722C10.9586 3.88484 12.7235 6.02316 12.7235 8.59729V13.6205ZM8.33199 13.2833H8.83199V12.7833V11.1089V10.6089H8.33199H6.70149H6.20149V11.1089V12.7833V13.2833H6.70149H8.33199ZM8.53169 17.4778C8.34993 17.8759 7.95809 18.1438 7.51674 18.1438C7.07539 18.1438 6.68355 17.8759 6.50179 17.4778H8.53169ZM7.51674 9.9345C8.25371 9.9345 8.83199 9.32129 8.83199 8.59729V6.92287C8.83199 6.19887 8.25372 5.58566 7.51674 5.58566C6.77977 5.58566 6.20149 6.19887 6.20149 6.92287V8.59729C6.20149 9.32129 6.77977 9.9345 7.51674 9.9345Z" stroke="#A6A6A6"/>
</svg>
