<svg width="18" height="19" viewBox="0 0 18 19" fill="none" xmlns="http://www.w3.org/2000/svg">
<path d="M6.55544 11.3091L6.55536 11.3091C6.28923 11.3895 6.05145 11.5007 5.8732 11.6477C5.70948 11.7827 5.498 12.0369 5.55227 12.382C5.60668 12.7281 5.88749 12.9071 6.09173 12.9882C6.313 13.0761 6.58771 13.1137 6.89349 13.1137H17.0166V14.0578H4.79438V12.514V12.4914L4.79235 12.469L4.70735 11.5283L4.70489 11.5012L4.69949 11.4744L2.8956 2.53983L2.81463 2.13879H2.40549H1.0166V1.1438H3.79438V2.63879V3.13879H4.29438H17.0166V8.10998C17.0149 8.12594 17.0093 8.13914 17.0028 8.14825C16.9979 8.15519 16.9931 8.15882 16.99 8.16065L6.55544 11.3091ZM13.394 17.2059C13.324 17.0184 13.2899 16.8172 13.2943 16.6144C13.3028 16.2154 13.459 15.8411 13.7216 15.57C13.9834 15.2998 14.3291 15.1537 14.6831 15.1538C15.0372 15.1539 15.3828 15.3002 15.6445 15.5705C15.9069 15.8418 16.063 16.2162 16.0713 16.6152C16.0756 16.818 16.0414 17.0191 15.9713 17.2066L16.4396 17.3817L15.9713 17.2066C15.9012 17.394 15.797 17.5629 15.6661 17.7042C15.5353 17.8454 15.3807 17.956 15.212 18.0309C15.0434 18.1057 14.8635 18.1438 14.6824 18.1438C14.5014 18.1438 14.3215 18.1055 14.1529 18.0306C13.9843 17.9556 13.8297 17.8449 13.6989 17.7037C13.5681 17.5623 13.464 17.3933 13.394 17.2059ZM4.26625 17.6706C4.00254 17.3921 3.84993 17.0088 3.84993 16.6037C3.84993 16.1987 4.00254 15.8153 4.26625 15.5368C4.52909 15.2592 4.87956 15.1087 5.23882 15.1087C5.59809 15.1087 5.94855 15.2592 6.21139 15.5368C6.47511 15.8153 6.62771 16.1987 6.62771 16.6037C6.62771 17.0088 6.47511 17.3921 6.21139 17.6706C5.94855 17.9482 5.59809 18.0987 5.23882 18.0987C4.87956 18.0987 4.52909 17.9482 4.26625 17.6706Z" stroke="#A6A6A6"/>
</svg>
