<svg width="24" height="24" viewBox="0 0 24 24" fill="none" xmlns="http://www.w3.org/2000/svg">
<circle cx="12" cy="12" r="12" fill="#C4C4C4"/>
<path d="M18.2306 5.76891C17.9943 5.53263 17.6737 5.3999 17.3396 5.3999C17.0054 5.3999 16.6849 5.53263 16.4485 5.76891L11.992 10.2254L7.53549 5.76891C7.29779 5.53933 6.97943 5.4123 6.64898 5.41517C6.31853 5.41804 6.00242 5.55059 5.76875 5.78426C5.53507 6.01793 5.40253 6.33404 5.39966 6.66449C5.39678 6.99495 5.52382 7.31331 5.7534 7.55101L10.2099 12.0075L5.7534 16.464C5.52382 16.7017 5.39678 17.0201 5.39966 17.3505C5.40253 17.681 5.53507 17.9971 5.76875 18.2308C6.00242 18.4644 6.31853 18.597 6.64898 18.5999C6.97943 18.6027 7.29779 18.4757 7.53549 18.2461L11.992 13.7896L16.4485 18.2461C16.6862 18.4757 17.0046 18.6027 17.335 18.5999C17.6655 18.597 17.9816 18.4644 18.2153 18.2308C18.4489 17.9971 18.5815 17.681 18.5843 17.3505C18.5872 17.0201 18.4602 16.7017 18.2306 16.464L13.7741 12.0075L18.2306 7.55101C18.4669 7.31466 18.5996 6.99415 18.5996 6.65996C18.5996 6.32576 18.4669 6.00525 18.2306 5.76891V5.76891Z" fill="white"/>
</svg>
