<svg width="11" height="7" viewBox="0 0 11 7" fill="none" xmlns="http://www.w3.org/2000/svg">
<path d="M-3.26821e-07 1.22917C-3.05599e-07 1.04861 0.0680339 0.892361 0.204101 0.760417C0.340169 0.628473 0.501302 0.5625 0.6875 0.5625L10.3125 0.562501C10.4987 0.562501 10.6598 0.628473 10.7959 0.760417C10.932 0.892362 11 1.04861 11 1.22917C11 1.40972 10.932 1.56597 10.7959 1.69792L5.9834 6.36458C5.84733 6.49653 5.6862 6.5625 5.5 6.5625C5.3138 6.5625 5.15267 6.49653 5.0166 6.36458L0.204101 1.69792C0.0680338 1.56597 -3.48042e-07 1.40972 -3.26821e-07 1.22917Z" fill="#FF0000"/>
</svg>
