<svg width="19" height="21" viewBox="0 0 19 21" fill="none" xmlns="http://www.w3.org/2000/svg">
<path d="M18 17.5H6M0 3.5H4H0ZM18 3.5H8H18ZM0 10.5H12H0ZM18 10.5H16H18ZM0 17.5H2H0Z" stroke="#224170" stroke-width="2" stroke-linecap="round"/>
<path d="M6 5.5C7.10457 5.5 8 4.60457 8 3.5C8 2.39543 7.10457 1.5 6 1.5C4.89543 1.5 4 2.39543 4 3.5C4 4.60457 4.89543 5.5 6 5.5Z" stroke="#224170" stroke-width="2" stroke-linecap="round"/>
<path d="M14 12.5C15.1046 12.5 16 11.6046 16 10.5C16 9.39543 15.1046 8.5 14 8.5C12.8954 8.5 12 9.39543 12 10.5C12 11.6046 12.8954 12.5 14 12.5Z" stroke="#224170" stroke-width="2" stroke-linecap="round"/>
<path d="M4 19.5C5.10457 19.5 6 18.6046 6 17.5C6 16.3954 5.10457 15.5 4 15.5C2.89543 15.5 2 16.3954 2 17.5C2 18.6046 2.89543 19.5 4 19.5Z" stroke="#224170" stroke-width="2" stroke-linecap="round"/>
</svg>
