<svg width="20" height="20" viewBox="0 0 36 33" fill="none" xmlns="http://www.w3.org/2000/svg">
<path d="M0.00292969 11.6719C11.6764 11.6719 23.3261 11.6719 34.9995 11.6719C34.9995 11.7903 34.9995 11.9323 34.9995 12.0507C34.9995 18.4676 34.9995 24.8844 34.9995 31.3012C34.9995 33.5033 33.5078 34.9714 31.3057 34.9714C22.0948 34.9714 12.884 34.9714 3.67307 34.9714C1.49467 34.9714 0.00292969 33.4796 0.00292969 31.3012C0.00292969 24.8607 0.00292969 18.4439 0.00292969 12.0034C0.00292969 11.9323 0.00292969 11.8139 0.00292969 11.6719ZM24.4863 20.8354C24.2732 20.8354 24.1312 20.8354 24.0128 20.8354C22.6158 20.8354 21.2187 20.8354 19.8217 20.8354C19.5849 20.8354 19.4665 20.7644 19.3718 20.5513C18.8272 19.2963 18.2589 18.0414 17.7143 16.7864C17.667 16.668 17.5959 16.5496 17.5012 16.3602C17.4065 16.5496 17.3592 16.668 17.2881 16.8101C16.7435 18.0177 16.1989 19.2489 15.678 20.4802C15.5596 20.7407 15.4412 20.8591 15.1097 20.8591C13.7364 20.8354 12.3394 20.8591 10.966 20.8591C10.8476 20.8591 10.7292 20.8591 10.5161 20.8591C10.6582 21.0485 10.7529 21.1432 10.8476 21.2379C11.8184 22.3508 12.7656 23.4637 13.7601 24.5529C13.9732 24.7897 13.9968 24.9791 13.9021 25.2633C13.4522 26.8497 13.026 28.4125 12.5998 29.9989C12.5761 30.0936 12.5525 30.1647 12.5288 30.3067C12.6945 30.212 12.7892 30.1647 12.884 30.0936C14.3047 29.2412 15.7254 28.4125 17.1224 27.5364C17.3828 27.3706 17.5723 27.3706 17.8327 27.5364C19.2298 28.4125 20.6505 29.2412 22.0712 30.0936C22.1895 30.1647 22.2843 30.212 22.45 30.3067C22.4263 30.1647 22.4027 30.0936 22.379 30.0226C21.9291 28.3888 21.5029 26.7787 21.053 25.1449C20.9819 24.9318 21.0056 24.766 21.1714 24.6003C21.8344 23.8662 22.4737 23.1322 23.113 22.3745C23.5866 21.8772 24.0128 21.4037 24.4863 20.8354Z" fill="white"/>
<path d="M9.3322 2.34399C14.7782 2.34399 20.2242 2.34399 25.6703 2.34399C25.6703 2.72284 25.6703 3.12538 25.6703 3.50423C25.6939 4.16722 26.1912 4.66447 26.8068 4.68815C27.4461 4.68815 27.9671 4.1909 27.9907 3.50423C27.9907 3.12538 27.9907 2.72284 27.9907 2.34399C29.1747 2.34399 30.3823 2.32031 31.5662 2.34399C33.4368 2.36767 34.9522 3.88308 34.9995 5.75367C35.0232 6.93759 34.9995 8.09783 34.9995 9.30543C23.3261 9.30543 11.7 9.30543 0.0266081 9.30543C0.0266081 9.21071 0.00292969 9.09232 0.00292969 8.99761C0.00292969 7.95576 0.00292969 6.93759 0.00292969 5.89574C0.00292969 3.85941 1.54202 2.34399 3.57836 2.32031C4.71492 2.32031 5.85148 2.32031 7.01172 2.32031C7.01172 2.69917 7.01172 3.1017 7.01172 3.48055C7.0354 4.14355 7.53265 4.64079 8.14828 4.66447C8.7876 4.66447 9.30852 4.16722 9.3322 3.48055C9.3322 3.1017 9.3322 2.72284 9.3322 2.34399Z" fill="white"/>
<path d="M7.01172 2.34416C7.01172 1.9653 7.01172 1.56277 7.01172 1.18392C7.0354 0.520924 7.53264 0.0236784 8.14828 0C8.78759 0 9.30852 0.497245 9.3322 1.18392C9.3322 1.56277 9.3322 1.9653 9.3322 2.34416C8.55081 2.32048 7.76943 2.32048 7.01172 2.34416Z" fill="white"/>
<path d="M25.6704 2.34416C25.6704 1.9653 25.6704 1.56277 25.6704 1.18392C25.6941 0.520924 26.1913 0.0236784 26.807 0C27.4463 0 27.9672 0.497245 27.9909 1.18392C27.9909 1.56277 27.9909 1.9653 27.9909 2.34416C27.2332 2.32048 26.4518 2.32048 25.6704 2.34416Z" fill="white"/>
</svg>
