<svg width="35" height="33" viewBox="0 0 35 36" fill="none" xmlns="http://www.w3.org/2000/svg">
<path d="M28.1595 0.997167C28.3449 0.997167 28.5304 0.997167 28.7158 0.997167C29.3339 1.26502 29.6018 1.73892 29.54 2.39826C29.5194 2.64551 29.54 2.91337 29.54 3.18123C30.9411 3.18123 32.301 3.18123 33.6609 3.18123C34.6087 3.18123 35.0001 3.57271 35.0001 4.52051C35.0001 14.5342 35.0001 24.5685 35.0001 34.5822C35.0001 35.5506 34.6087 35.9421 33.6403 35.9421C22.9054 35.9421 12.1911 35.9421 1.45627 35.9421C0.776328 35.9421 0.323032 35.7361 0.0551758 35.118C0.0551758 24.7334 0.0551758 14.3694 0.0551758 3.9848C0.323032 3.36667 0.796932 3.14002 1.45627 3.16062C2.67193 3.20183 3.90819 3.16062 5.12384 3.16062C5.24747 3.16062 5.3711 3.16062 5.51533 3.16062C5.51533 2.87216 5.53593 2.62491 5.51533 2.37766C5.45351 1.71832 5.72137 1.24442 6.3395 0.976562C6.52494 0.976562 6.71038 0.976562 6.89582 0.976562C7.51395 1.24442 7.7818 1.71832 7.71999 2.37766C7.69939 2.62491 7.71999 2.89277 7.71999 3.14002C10.6664 3.14002 13.551 3.14002 16.4562 3.14002C16.4562 2.87216 16.4768 2.62491 16.4562 2.37766C16.3944 1.71832 16.6623 1.24442 17.2804 0.976562C17.4658 0.976562 17.6513 0.976562 17.8367 0.976562C18.4549 1.24442 18.7227 1.71832 18.6609 2.37766C18.6403 2.62491 18.6609 2.89277 18.6609 3.14002C21.6073 3.14002 24.4919 3.14002 27.3971 3.14002C27.3971 2.87216 27.4177 2.62491 27.3971 2.37766C27.2735 1.73892 27.5414 1.26502 28.1595 0.997167ZM2.23924 11.9381C2.23924 19.232 2.23924 26.4847 2.23924 33.7375C12.4384 33.7375 22.6169 33.7375 32.7749 33.7375C32.7749 26.4641 32.7749 19.1908 32.7749 11.9381C22.5963 11.9381 12.4384 11.9381 2.23924 11.9381ZM16.415 5.4065C13.4892 5.4065 10.584 5.4065 7.67878 5.4065C7.67878 5.75677 7.67878 6.08644 7.67878 6.41611C7.67878 7.07545 7.20488 7.56995 6.58675 7.56995C5.96862 7.56995 5.49472 7.07545 5.49472 6.41611C5.49472 6.08644 5.49472 5.73617 5.49472 5.4065C4.38209 5.4065 3.31066 5.4065 2.23924 5.4065C2.23924 6.8694 2.23924 8.2911 2.23924 9.73341C12.4384 9.73341 22.6169 9.73341 32.7955 9.73341C32.7955 8.2705 32.7955 6.8282 32.7955 5.4065C31.7034 5.4065 30.632 5.4065 29.54 5.4065C29.54 5.73617 29.54 6.04523 29.54 6.3749C29.54 7.09605 29.0867 7.59056 28.4274 7.56995C27.7886 7.56995 27.3559 7.07545 27.3559 6.3749C27.3559 6.04523 27.3559 5.73617 27.3559 5.4065C24.4095 5.4065 21.5249 5.4065 18.6197 5.4065C18.6197 5.77737 18.6197 6.12765 18.6197 6.47792C18.5991 7.09605 18.1252 7.56995 17.5483 7.56995C16.9507 7.56995 16.4562 7.09605 16.4562 6.45732C16.415 6.10704 16.415 5.77737 16.415 5.4065Z" fill="white"/>
<path d="M26.6351 21.003C26.6351 21.4357 26.429 21.7035 26.1818 21.9714C25.0897 23.0222 24.0183 24.0936 22.9263 25.1238C22.7614 25.2887 22.6996 25.4123 22.7408 25.6596C23.0087 27.1843 23.2766 28.7296 23.5238 30.2543C23.6062 30.7076 23.4826 31.0991 23.1117 31.367C22.7408 31.6348 22.3288 31.6554 21.9167 31.4494C20.5362 30.7282 19.1351 29.9865 17.7546 29.2653C17.5692 29.1623 17.4249 29.1623 17.2189 29.2653C15.8796 29.9865 14.5197 30.687 13.1804 31.3876C12.7271 31.6348 12.2944 31.6966 11.8617 31.367C11.4497 31.0579 11.3672 30.6458 11.4497 30.1513C11.7175 28.6472 11.9648 27.1225 12.2326 25.6184C12.2738 25.3917 12.212 25.2681 12.0678 25.1238C10.9758 24.073 9.90434 23.0016 8.81231 21.9508C8.44143 21.6005 8.23538 21.209 8.40022 20.6939C8.56505 20.1788 8.95654 19.9728 9.45104 19.9109C10.9346 19.7049 12.3975 19.4783 13.881 19.2722C14.1488 19.231 14.3137 19.128 14.4373 18.8807C15.076 17.5414 15.756 16.2022 16.3947 14.8629C16.6214 14.389 16.951 14.1211 17.4867 14.1417C18.0018 14.1417 18.3315 14.4096 18.5376 14.8629C19.1969 16.2228 19.8768 17.5621 20.5362 18.9219C20.6392 19.128 20.7628 19.231 20.9895 19.2516C22.473 19.4577 23.9565 19.6637 25.44 19.8903C26.223 20.0346 26.6351 20.4467 26.6351 21.003ZM12.006 21.7859C12.7271 22.5483 13.4277 23.3313 14.1694 24.1142C14.4785 24.4439 14.6227 24.7942 14.5403 25.2269C14.4373 25.8038 14.3343 26.3601 14.2312 26.937C14.1488 27.4315 14.0664 27.926 13.984 28.4824C14.1282 28.4205 14.2106 28.3793 14.2931 28.3381C15.1584 27.8848 16.0032 27.4521 16.848 26.9782C17.2807 26.731 17.7134 26.731 18.1461 26.9782C18.3933 27.1225 18.6406 27.2461 18.9084 27.3697C19.5884 27.72 20.2683 28.0909 20.9895 28.4617C20.9689 28.2969 20.9689 28.2145 20.9483 28.1115C20.804 27.2049 20.6598 26.2983 20.4744 25.3917C20.3507 24.8148 20.495 24.3615 20.9277 23.9906C21.2161 23.7434 21.484 23.4549 21.7518 23.187C22.1845 22.7337 22.6172 22.2598 23.0499 21.8065C23.0705 21.8065 23.0087 21.7859 22.9675 21.7653C21.9991 21.6211 21.0101 21.4769 20.0211 21.3533C19.506 21.2914 19.1351 21.0442 18.9084 20.5703C18.6612 20.014 18.3727 19.4783 18.1049 18.9219C17.9194 18.5305 17.7134 18.139 17.4867 17.7063C17.4043 17.8711 17.3425 17.9741 17.2807 18.0772C16.8686 18.9219 16.4359 19.7667 16.0238 20.6115C15.8178 21.0442 15.4675 21.2914 14.9936 21.3533C14.6433 21.3945 14.2931 21.4563 13.9428 21.4975C13.3041 21.6005 12.6035 21.7035 12.006 21.7859Z" fill="white"/>
</svg>
