<svg width="21" height="15" viewBox="0 0 21 15" fill="none" xmlns="http://www.w3.org/2000/svg">
<path d="M20.25 5.94512H17.7188V3.34756C17.7188 2.94284 17.3836 2.61585 16.9688 2.61585H9.58594L6.83672 0.0503048C6.80174 0.0183561 6.75573 0.000400831 6.70781 0H0.75C0.335156 0 0 0.326982 0 0.731707V14.2683C0 14.673 0.335156 15 0.75 15H17.1094C17.4141 15 17.6906 14.8194 17.8055 14.5427L20.9461 6.95122C20.9813 6.86433 21 6.77058 21 6.67683C21 6.2721 20.6648 5.94512 20.25 5.94512ZM16.0312 5.94512H4.07812C3.77344 5.94512 3.49688 6.12576 3.38203 6.40244L1.6875 10.5V1.64634H6.10547L8.90859 4.2622H16.0312V5.94512Z" fill="#224170"/>
</svg>
