<svg width="17.17" height="17.17" viewBox="0 0 18 18" fill="none" xmlns="http://www.w3.org/2000/svg">
<path d="M15.8574 9.12694H8.87305V2.14256C8.87305 2.05662 8.80273 1.98631 8.7168 1.98631H8.20898C7.18415 1.98526 6.16919 2.18659 5.22234 2.57873C4.2755 2.97088 3.4154 3.54612 2.69141 4.27147C1.97858 4.98209 1.41075 5.82455 1.01953 6.75194C0.613281 7.71483 0.40625 8.73631 0.40625 9.791C0.40625 10.8457 0.613281 11.8652 1.01953 12.8281C1.41211 13.7558 1.97461 14.5918 2.69141 15.3086C3.4082 16.0254 4.24219 16.5879 5.17188 16.9805C6.13308 17.3882 7.16681 17.5975 8.21094 17.5957C9.23577 17.5967 10.2507 17.3954 11.1976 17.0033C12.1444 16.6111 13.0045 16.0359 13.7285 15.3105C14.4453 14.5937 15.0078 13.7597 15.4004 12.8301C15.8082 11.8689 16.0174 10.8351 16.0156 9.791V9.28319C16.0137 9.19725 15.9434 9.12694 15.8574 9.12694ZM17.5742 8.04295L17.5234 7.49217C17.3574 5.69529 16.5605 3.99998 15.2754 2.72069C13.9914 1.4378 12.2995 0.643991 10.4922 0.476545L9.93945 0.425764C9.84766 0.417952 9.76953 0.488264 9.76953 0.580061V8.0742C9.76953 8.16014 9.83984 8.23045 9.92578 8.23045L17.418 8.21092C17.5098 8.20897 17.582 8.1328 17.5742 8.04295Z" fill="#224170"/>
</svg>
