<svg width="8" height="10" viewBox="0 0 8 10" fill="none" xmlns="http://www.w3.org/2000/svg">
<path d="M6.82909 7.07198L4 10L1.17091 7.07198C0.611688 6.49248 0.230912 5.75425 0.0767233 4.95063C-0.0774653 4.14701 0.00185762 3.31407 0.304663 2.55714C0.607469 1.8002 1.12016 1.15326 1.77792 0.698098C2.43567 0.242938 3.20896 0 4 0C4.79105 0 5.56433 0.242938 6.22208 0.698098C6.87984 1.15326 7.39253 1.8002 7.69534 2.55714C7.99814 3.31407 8.07747 4.14701 7.92328 4.95063C7.76909 5.75425 7.38831 6.49248 6.82909 7.07198ZM4 5.64827C4.38577 5.64827 4.75574 5.48954 5.02852 5.207C5.3013 4.92447 5.45455 4.54126 5.45455 4.1417C5.45455 3.74213 5.3013 3.35893 5.02852 3.07639C4.75574 2.79385 4.38577 2.63513 4 2.63513C3.61423 2.63513 3.24426 2.79385 2.97148 3.07639C2.6987 3.35893 2.54546 3.74213 2.54546 4.1417C2.54546 4.54126 2.6987 4.92447 2.97148 5.207C3.24426 5.48954 3.61423 5.64827 4 5.64827Z" fill="#6F829E"/>
</svg>
