<svg width="40" height="41" viewBox="0 0 40 41" fill="none" xmlns="http://www.w3.org/2000/svg">
<path d="M9 20.6731C9.23107 21.0032 9.43397 21.3557 9.68759 21.6634C11.0684 23.3308 12.6859 24.724 14.6416 25.7088C15.9773 26.3802 17.3807 26.8054 18.8742 26.9453C21.7711 27.2195 24.3975 26.4529 26.7984 24.8639C28.3595 23.8288 29.6558 22.5307 30.7887 21.0591C31.0704 20.6954 31.0704 20.3038 30.7887 19.9401C29.4811 18.2391 27.9538 16.7788 26.0883 15.6933C24.544 14.7925 22.8927 14.2217 21.1004 14.0539C18.4966 13.8077 16.09 14.412 13.8526 15.7269C12.004 16.8123 10.4879 18.2727 9.19726 19.9625C9.11272 20.0744 9.062 20.2086 9 20.3317C9 20.4436 9 20.5556 9 20.6731ZM19.8492 25.0877C17.3412 25.0429 15.3348 22.9223 15.3743 20.3653C15.4137 17.8642 17.5554 15.8667 20.1423 15.9171C22.6447 15.9619 24.6624 18.0936 24.6173 20.6395C24.5778 23.1406 22.4361 25.1325 19.8492 25.0877Z" fill="#224170"/>
<path d="M20.007 22.9727C21.3597 22.9727 22.4869 21.876 22.4925 20.55C22.4981 19.1567 21.3766 18.0321 19.9845 18.0321C18.6319 18.0321 17.5103 19.1456 17.5103 20.4884C17.5103 21.8536 18.6375 22.9727 20.007 22.9727Z" fill="#224170"/>
</svg>
