<svg width="40" height="41" viewBox="0 0 40 41" fill="none" xmlns="http://www.w3.org/2000/svg">
<path fill-rule="evenodd" clip-rule="evenodd" d="M20 30.5C25.5228 30.5 30 26.0228 30 20.5C30 14.9772 25.5228 10.5 20 10.5C14.4772 10.5 10 14.9772 10 20.5C10 26.0228 14.4772 30.5 20 30.5ZM21.7647 14.6177C21.7647 13.6431 20.9746 12.853 20 12.853C19.0254 12.853 18.2353 13.6431 18.2353 14.6177V18.7354H14.1176C13.143 18.7354 12.3529 19.5254 12.3529 20.5001C12.3529 21.4747 13.143 22.2648 14.1176 22.2648H18.2353V26.3824C18.2353 27.357 19.0254 28.1471 20 28.1471C20.9746 28.1471 21.7647 27.357 21.7647 26.3824V22.2648H25.8823C26.857 22.2648 27.6471 21.4747 27.6471 20.5001C27.6471 19.5254 26.857 18.7354 25.8823 18.7354H21.7647V14.6177Z" fill="#00A94E"/>
</svg>
