<svg width="30" height="26" viewBox="0 0 30 26" fill="none" xmlns="http://www.w3.org/2000/svg">
<path d="M0 6.44407C3.13613 6.44568 6.27226 6.44729 9.40838 6.4489C9.52431 6.4489 9.63944 6.4489 9.78043 6.4489C9.78043 7.15784 9.78043 7.84104 9.78043 8.55642C9.58697 8.55642 9.40447 8.55642 9.22197 8.55642C6.3404 8.55561 3.45804 8.55561 0.576471 8.55481C0.384575 8.5532 0.191896 8.55239 0 8.55078C0 7.84908 0 7.14658 0 6.44407Z" fill="#FED05D"/>
<path d="M19.8757 0.000804569C19.8749 0.0217269 19.8742 0.0426494 19.8726 0.0635717C16.6104 0.062767 13.3481 0.0627669 10.0859 0.0619622C10.0851 0.0410399 10.0851 0.0209223 10.0843 0C13.3481 0.000804704 16.6119 0.000804569 19.8757 0.000804569Z" fill="#B6E3DD"/>
<path d="M19.329 2.88808C19.3314 2.97821 19.3353 3.06834 19.3353 3.15846C19.3353 10.635 19.3353 18.1107 19.3353 25.5872C19.3353 25.9952 19.3353 25.9952 18.9382 25.9952C16.3198 25.9952 13.7006 25.9927 11.0822 26C10.8441 26.0008 10.7376 25.963 10.7376 25.6773C10.7454 18.1211 10.7438 10.5642 10.7438 3.00798C10.7438 2.96775 10.7485 2.92832 10.7517 2.88808C13.6113 2.88808 16.4702 2.88808 19.329 2.88808ZM16.355 12.279C16.355 10.0041 16.355 7.76378 16.355 5.51303C15.4668 5.51303 14.5966 5.51303 13.728 5.51303C13.728 5.94596 13.728 6.35233 13.728 6.79894C14.1408 6.79894 14.534 6.79894 14.9585 6.79894C14.9585 8.64976 14.9585 10.4587 14.9585 12.279C15.4355 12.279 15.8812 12.279 16.355 12.279Z" fill="#67C6B9"/>
<path d="M9.19143 9.33215C9.19456 9.43194 9.19926 9.53252 9.19926 9.63231C9.20004 14.949 9.19926 20.2657 9.19926 25.5823C9.19926 25.6918 9.19926 25.8004 9.19926 25.938C6.3451 25.938 3.5113 25.938 0.661062 25.938C0.652446 25.8704 0.636782 25.8028 0.636782 25.736C0.636782 20.2689 0.637565 14.8017 0.639131 9.33457C3.49016 9.33457 6.3404 9.33296 9.19143 9.33215ZM4.78252 17.6423C4.77155 17.6182 4.76059 17.5932 4.74962 17.5691C4.835 17.4766 4.92429 17.3864 5.00574 17.2899C5.59866 16.5858 6.22918 15.9098 6.77197 15.1671C7.29831 14.4468 7.16359 13.0121 6.23779 12.39C4.9893 11.5499 3.23482 12.0319 2.52598 13.4667C2.86434 13.6397 3.20662 13.8039 3.53872 13.989C3.70633 14.0823 3.79327 14.0292 3.9045 13.8932C4.06036 13.7041 4.23033 13.5174 4.42536 13.3734C4.75902 13.1271 5.11618 13.1424 5.40285 13.3726C5.65427 13.5746 5.77959 13.9769 5.63234 14.3278C5.51956 14.5973 5.35272 14.8581 5.15848 15.0737C4.38463 15.9364 3.58963 16.7789 2.8056 17.6319C2.7351 17.7083 2.64582 17.8065 2.64033 17.899C2.62075 18.2459 2.6325 18.5943 2.6325 18.9476C4.2131 18.9476 5.75766 18.9476 7.3038 18.9476C7.3038 18.5042 7.3038 18.0873 7.3038 17.6423C6.45319 17.6423 5.61824 17.6423 4.78252 17.6423Z" fill="#FED05C"/>
<path d="M29.3797 13.1899C29.3812 17.3808 29.3828 21.5725 29.3836 25.7634C29.3836 25.8213 29.3742 25.8793 29.3679 25.9541C26.5239 25.9541 23.6972 25.9541 20.8454 25.9541C20.8368 25.8801 20.8203 25.8044 20.8203 25.7296C20.8195 21.5781 20.8195 17.4275 20.8203 13.276C20.8203 13.2462 20.8242 13.2165 20.8266 13.1859C23.6776 13.1867 26.5286 13.1883 29.3797 13.1899ZM24.0238 19.8714C24.1687 19.8295 24.2611 19.7997 24.3551 19.7756C24.8 19.6637 25.2441 19.6211 25.6702 19.8432C26.014 20.0226 26.1911 20.3663 26.1354 20.7026C26.0751 21.068 25.8355 21.2933 25.4438 21.381C25.0232 21.4751 24.6269 21.3939 24.2486 21.2136C23.9596 21.076 23.6847 20.9086 23.3784 20.7412C23.1756 21.1364 22.9774 21.5218 22.7596 21.9451C23.0314 22.094 23.2703 22.2485 23.5257 22.3611C24.5032 22.7916 25.4916 22.8737 26.4652 22.3587C27.6542 21.7294 27.9095 19.9711 26.9312 19.0312C26.6469 18.7577 26.2576 18.5991 25.9044 18.3802C26.2616 17.9634 26.6555 17.5063 27.0456 17.046C27.1075 16.9728 27.1913 16.8851 27.196 16.8006C27.2132 16.4642 27.203 16.1271 27.203 15.7955C25.8308 15.7955 24.4977 15.7955 23.1716 15.7955C23.1716 16.2848 23.1716 16.7507 23.1716 17.2496C23.8617 17.2496 24.529 17.2496 25.2598 17.2496C24.8815 17.7164 24.5423 18.1276 24.2118 18.546C24.135 18.6434 24.0418 18.7609 24.0332 18.8751C24.0081 19.193 24.0238 19.5141 24.0238 19.8714Z" fill="#F2705A"/>
<path d="M10.0859 0.0627668C13.3481 0.0635715 16.6104 0.0635715 19.8726 0.0643763C19.8726 0.749179 19.8726 1.43398 19.8726 2.16787C19.6846 2.16787 19.5139 2.16787 19.3431 2.16787C16.4741 2.16787 13.605 2.16787 10.736 2.16787C10.5331 2.16787 10.3303 2.16787 10.0859 2.16787C10.0859 1.44847 10.0859 0.755617 10.0859 0.0627668Z" fill="#67C6B9"/>
<path d="M20.7953 12.4093C20.6128 12.4093 20.4295 12.4093 20.2282 12.4093C20.2282 11.7044 20.2282 11.0204 20.2282 10.3195C23.492 10.3195 26.737 10.3195 30 10.3195C30 11.0148 30 11.7004 30 12.4077C29.8089 12.4077 29.6272 12.4077 29.4447 12.4077C26.5615 12.4085 23.6784 12.4093 20.7953 12.4093Z" fill="#F2705B"/>
<path d="M9.19143 9.33215C6.34118 9.33296 3.49016 9.33457 0.639914 9.33537C0.618766 9.07545 0.597618 8.81553 0.577254 8.55481C3.45883 8.55561 6.3404 8.55561 9.22276 8.55642C9.21179 8.81553 9.20161 9.07384 9.19143 9.33215Z" fill="#F6B64C"/>
<path d="M20.7953 12.4093C23.6784 12.4085 26.5615 12.4085 29.4447 12.4077C29.4235 12.6685 29.4016 12.9284 29.3804 13.1891C26.5294 13.1875 23.6784 13.1867 20.8274 13.1851C20.8164 12.9268 20.8054 12.6685 20.7953 12.4093Z" fill="#EF5641"/>
<path d="M10.736 2.16787C13.605 2.16787 16.4741 2.16787 19.3431 2.16787C19.3384 2.40767 19.3337 2.64828 19.329 2.88808C16.4702 2.88808 13.6113 2.88808 10.7524 2.88728C10.747 2.64748 10.7415 2.40767 10.736 2.16787Z" fill="#4BBAA5"/>
<path d="M16.355 12.279C15.8812 12.279 15.4355 12.279 14.9585 12.279C14.9585 10.4587 14.9585 8.64976 14.9585 6.79894C14.5347 6.79894 14.1416 6.79894 13.728 6.79894C13.728 6.35153 13.728 5.94596 13.728 5.51303C14.5966 5.51303 15.4668 5.51303 16.355 5.51303C16.355 7.76378 16.355 10.0041 16.355 12.279Z" fill="#FDFEFE"/>
<path d="M4.78252 17.6423C5.61746 17.6423 6.4524 17.6423 7.30536 17.6423C7.30536 18.0881 7.30536 18.5042 7.30536 18.9476C5.75923 18.9476 4.21466 18.9476 2.63407 18.9476C2.63407 18.5943 2.62232 18.2459 2.6419 17.899C2.64738 17.8065 2.73667 17.7083 2.80716 17.6319C3.5912 16.7789 4.38619 15.9356 5.16004 15.0737C5.35429 14.8572 5.52034 14.5973 5.63391 14.3278C5.78116 13.9769 5.65584 13.5746 5.40442 13.3726C5.11775 13.1424 4.76059 13.1271 4.42692 13.3734C4.23189 13.5174 4.06193 13.7033 3.90606 13.8932C3.79406 14.0292 3.7079 14.0831 3.54028 13.989C3.20819 13.8039 2.86591 13.6397 2.52754 13.4667C3.2356 12.0311 4.99008 11.5499 6.23936 12.39C7.16438 13.0129 7.29988 14.4468 6.77354 15.1671C6.23074 15.9098 5.60023 16.5858 5.00731 17.2899C4.92585 17.3864 4.83656 17.4758 4.75119 17.5691C4.76137 17.5932 4.77234 17.6174 4.78252 17.6423Z" fill="#FEFEFD"/>
<path d="M24.0238 19.8714C24.0238 19.5141 24.0081 19.193 24.0324 18.8759C24.041 18.7617 24.1342 18.6442 24.211 18.5468C24.5415 18.1284 24.8807 17.7172 25.259 17.2504C24.5282 17.2504 23.8609 17.2504 23.1709 17.2504C23.1709 16.7515 23.1709 16.2856 23.1709 15.7963C24.4977 15.7963 25.83 15.7963 27.2022 15.7963C27.2022 16.1279 27.2124 16.465 27.1952 16.8014C27.1905 16.8859 27.1067 16.9736 27.0448 17.0468C26.6547 17.5071 26.2616 17.9642 25.9036 18.381C26.2569 18.5999 26.6461 18.7585 26.9304 19.0321C27.9087 19.9719 27.6534 21.7302 26.4644 22.3595C25.4916 22.8745 24.5024 22.7932 23.5249 22.3619C23.2688 22.2493 23.0306 22.0948 22.7589 21.9459C22.9758 21.5234 23.174 21.1372 23.3776 20.7421C23.6839 20.9094 23.9596 21.0768 24.2478 21.2144C24.6261 21.3939 25.0225 21.4759 25.4431 21.3818C25.8347 21.2941 26.0744 21.0688 26.1347 20.7034C26.1903 20.3671 26.0133 20.0234 25.6694 19.844C25.2441 19.6219 24.7992 19.6646 24.3543 19.7764C24.2611 19.7997 24.1687 19.8295 24.0238 19.8714Z" fill="#FEFDFD"/>
</svg>
