<svg width="20" height="17.5" viewBox="0 0 20 18" fill="none" xmlns="http://www.w3.org/2000/svg">
<path d="M0.00244141 2.75C0.00244141 2.08696 0.265834 1.45107 0.734674 0.982233C1.20352 0.513392 1.8394 0.25 2.50244 0.25H17.5024C18.1655 0.25 18.8014 0.513392 19.2702 0.982233C19.739 1.45107 20.0024 2.08696 20.0024 2.75V15.25C20.0024 15.913 19.739 16.5489 19.2702 17.0178C18.8014 17.4866 18.1655 17.75 17.5024 17.75H2.50244C1.8394 17.75 1.20352 17.4866 0.734674 17.0178C0.265834 16.5489 0.00244141 15.913 0.00244141 15.25V2.75ZM1.25244 14V15.25C1.25244 15.5815 1.38414 15.8995 1.61856 16.1339C1.85298 16.3683 2.17092 16.5 2.50244 16.5H17.5024C17.834 16.5 18.1519 16.3683 18.3863 16.1339C18.6207 15.8995 18.7524 15.5815 18.7524 15.25V10.875L14.0312 8.44125C13.914 8.38253 13.7812 8.36216 13.6518 8.38302C13.5224 8.40388 13.4028 8.46492 13.3099 8.5575L8.67244 13.195L5.34744 10.98C5.22739 10.9001 5.08339 10.8641 4.93986 10.8783C4.79634 10.8924 4.66211 10.9557 4.55994 11.0575L1.25244 14ZM7.50244 5.875C7.50244 5.37772 7.3049 4.90081 6.95327 4.54917C6.60164 4.19754 6.12472 4 5.62744 4C5.13016 4 4.65325 4.19754 4.30162 4.54917C3.94999 4.90081 3.75244 5.37772 3.75244 5.875C3.75244 6.37228 3.94999 6.84919 4.30162 7.20083C4.65325 7.55246 5.13016 7.75 5.62744 7.75C6.12472 7.75 6.60164 7.55246 6.95327 7.20083C7.3049 6.84919 7.50244 6.37228 7.50244 5.875Z" fill="#224170"/>
</svg>

