<svg width="5" height="12" viewBox="0 0 5 12" fill="none" xmlns="http://www.w3.org/2000/svg">
<path d="M2.20684 1.1954C2.03861 0.816883 1.59539 0.646413 1.21688 0.814641C0.838367 0.982869 0.667898 1.42609 0.836126 1.8046L2.20684 1.1954ZM3.52148 6L4.20684 6.3046L4.34222 6L4.20684 5.6954L3.52148 6ZM0.836126 10.1954C0.667898 10.5739 0.838367 11.0171 1.21688 11.1854C1.59539 11.3536 2.03861 11.1831 2.20684 10.8046L0.836126 10.1954ZM0.836126 1.8046L2.83613 6.3046L4.20684 5.6954L2.20684 1.1954L0.836126 1.8046ZM2.83613 5.6954L0.836126 10.1954L2.20684 10.8046L4.20684 6.3046L2.83613 5.6954Z" fill="#224170"/>
</svg>
