<svg width="18.33" height="13.33" viewBox="0 0 20 14" fill="none" xmlns="http://www.w3.org/2000/svg">
<path d="M17.5002 0.333374H2.50016C2.05814 0.333374 1.63421 0.508969 1.32165 0.821529C1.00909 1.13409 0.833496 1.55801 0.833496 2.00004V12C0.833496 12.4421 1.00909 12.866 1.32165 13.1786C1.63421 13.4911 2.05814 13.6667 2.50016 13.6667H17.5002C17.9422 13.6667 18.3661 13.4911 18.6787 13.1786C18.9912 12.866 19.1668 12.4421 19.1668 12V2.00004C19.1668 1.55801 18.9912 1.13409 18.6787 0.821529C18.3661 0.508969 17.9422 0.333374 17.5002 0.333374ZM2.50016 2.00004H9.16683V12H2.50016V2.00004ZM17.5002 12H10.0002V2.00004H17.5027L17.5002 12ZM16.6668 8.25004C16.6668 8.02087 16.4793 7.83337 16.2502 7.83337H15.4168C15.1877 7.83337 15.0002 8.02087 15.0002 8.25004V10.75C15.0002 10.9792 15.1877 11.1667 15.4168 11.1667H16.2502C16.4793 11.1667 16.6668 10.9792 16.6668 10.75V8.25004ZM14.1668 3.25004C14.1668 3.02087 13.9793 2.83337 13.7502 2.83337H11.2502C11.021 2.83337 10.8335 3.02087 10.8335 3.25004V7.41671C10.8335 7.64587 11.021 7.83337 11.2502 7.83337H13.7502C13.9793 7.83337 14.1668 7.64587 14.1668 7.41671V3.25004ZM15.4168 5.33337H16.2502C16.4793 5.33337 16.6668 5.14587 16.6668 4.91671C16.6668 4.68754 16.4793 4.50004 16.2502 4.50004H15.4168C15.1877 4.50004 15.0002 4.68754 15.0002 4.91671C15.0002 5.14587 15.1877 5.33337 15.4168 5.33337ZM15.4168 7.00004H16.2502C16.4793 7.00004 16.6668 6.81254 16.6668 6.58337C16.6668 6.35421 16.4793 6.16671 16.2502 6.16671H15.4168C15.1877 6.16671 15.0002 6.35421 15.0002 6.58337C15.0002 6.81254 15.1877 7.00004 15.4168 7.00004ZM11.2502 9.50004H13.7502C13.9793 9.50004 14.1668 9.31254 14.1668 9.08337C14.1668 8.85421 13.9793 8.66671 13.7502 8.66671H11.2502C11.021 8.66671 10.8335 8.85421 10.8335 9.08337C10.8335 9.31254 11.021 9.50004 11.2502 9.50004ZM13.7502 10.3334H11.2502C11.021 10.3334 10.8335 10.5209 10.8335 10.75C10.8335 10.9792 11.021 11.1667 11.2502 11.1667H13.7502C13.9793 11.1667 14.1668 10.9792 14.1668 10.75C14.1668 10.5209 13.9793 10.3334 13.7502 10.3334ZM15.4168 3.66671H16.2502C16.4793 3.66671 16.6668 3.47921 16.6668 3.25004C16.6668 3.02087 16.4793 2.83337 16.2502 2.83337H15.4168C15.1877 2.83337 15.0002 3.02087 15.0002 3.25004C15.0002 3.47921 15.1877 3.66671 15.4168 3.66671ZM8.3335 3.25004C8.3335 3.02087 8.146 2.83337 7.91683 2.83337H3.75016C3.521 2.83337 3.3335 3.02087 3.3335 3.25004V5.75004C3.3335 5.97921 3.521 6.16671 3.75016 6.16671H7.91683C8.146 6.16671 8.3335 5.97921 8.3335 5.75004V3.25004ZM7.91766 8.66671H3.751C3.52266 8.66671 3.33433 8.85421 3.33433 9.08337C3.33433 9.31254 3.52266 9.50004 3.751 9.50004H7.91766C8.146 9.50004 8.3335 9.31254 8.3335 9.08337C8.3335 8.85421 8.146 8.66671 7.91766 8.66671ZM7.91766 7.00004H3.751C3.52266 7.00004 3.33433 7.18754 3.33433 7.41671C3.33433 7.64587 3.52266 7.83337 3.751 7.83337H7.91766C8.146 7.83337 8.3335 7.64587 8.3335 7.41671C8.3335 7.18754 8.146 7.00004 7.91766 7.00004ZM7.91766 10.3334H3.751C3.52266 10.3334 3.33433 10.5209 3.33433 10.75C3.33433 10.9792 3.52266 11.1667 3.751 11.1667H7.91766C8.146 11.1667 8.3335 10.9792 8.3335 10.75C8.3335 10.5209 8.146 10.3334 7.91766 10.3334Z" fill="#224170"/>
</svg>
