<svg width="14" height="14" viewBox="0 0 16 16" fill="none" xmlns="http://www.w3.org/2000/svg">
<path d="M8 15C11.866 15 15 11.866 15 7.99999C15 4.13399 11.866 1 8 1C4.134 1 1 4.13399 1 7.99999C1 11.866 4.134 15 8 15Z" stroke="#224170" stroke-width="1.5"/>
<path d="M1.875 10.3433C2.75518 10.719 3.3888 10.719 3.77583 10.3433C4.35639 9.77985 3.85542 8.06973 4.66851 7.59809C5.48156 7.12645 6.72033 9.2171 7.87817 8.5292C9.03598 7.84126 7.76908 6.00695 8.57257 5.26331C9.37606 4.51967 10.4209 5.35835 10.6035 4.11491C10.7861 2.8715 9.75138 3.41078 9.55283 2.23577C9.42043 1.45244 9.6176 1.47798 9.75 1.4375" stroke="#224170" stroke-width="1.5" stroke-linecap="round"/>
<path d="M9.3124 14.5626C8.66073 13.9001 8.6924 13.3818 8.87489 12.8126C9.14862 11.9588 9.9905 12.028 10.1874 11.5001C10.3842 10.9722 10.2659 9.95521 11.4999 9.31249C12.3225 8.88399 13.6874 9.75006 14.1249 11.3883" stroke="#224170" stroke-width="1.5" stroke-linecap="round"/>
</svg>
