<svg width="12" height="12" viewBox="0 0 14 14" fill="none" xmlns="http://www.w3.org/2000/svg">
<path fill-rule="evenodd" clip-rule="evenodd" d="M7.95242 4.14479C7.76535 4.27492 7.55432 4.36636 7.33164 4.41378C7.10897 4.4612 6.87911 4.46365 6.65548 4.42099C6.43185 4.37834 6.21892 4.29142 6.02913 4.16532C5.83935 4.03922 5.67649 3.87645 5.55008 3.68653C5.42366 3.49661 5.33622 3.28333 5.29285 3.05914C5.24948 2.83495 5.25105 2.60434 5.29747 2.38076C5.34389 2.15718 5.43423 1.94512 5.56322 1.75695C5.69221 1.56878 5.85727 1.40827 6.04876 1.28478C6.42682 1.03426 6.88837 0.944082 7.33251 1.03396C7.77665 1.12384 8.16726 1.38647 8.41895 1.76444C8.67065 2.14241 8.76295 2.60497 8.67569 3.05102C8.58843 3.49706 8.32784 3.89031 7.95242 4.14479ZM7.47672 2.00021C7.38338 1.93285 7.27748 1.88501 7.16532 1.85955C7.05317 1.8341 6.93706 1.83154 6.8239 1.85204C6.71074 1.87253 6.60285 1.91566 6.50665 1.97885C6.41045 2.04205 6.32791 2.12402 6.26394 2.21988C6.19997 2.31574 6.15588 2.42353 6.13429 2.53684C6.11271 2.65015 6.11407 2.76666 6.1383 2.87943C6.16253 2.9922 6.20913 3.09893 6.27532 3.19326C6.34152 3.28759 6.42595 3.36759 6.5236 3.4285C6.71227 3.54348 6.93787 3.581 7.15343 3.53325C7.36898 3.48549 7.55786 3.35614 7.68071 3.17215C7.80357 2.98816 7.85093 2.76371 7.81293 2.54555C7.77493 2.3274 7.65449 2.1315 7.47672 2.00021ZM9.7138 2.02601C9.96101 1.85919 10.2585 1.78407 10.5549 1.81358C10.8514 1.84308 11.1283 1.97538 11.338 2.18767C11.4875 2.3388 11.5977 2.5244 11.659 2.7282C11.7202 2.93201 11.7307 3.14778 11.6895 3.3566C11.6483 3.56542 11.5567 3.76091 11.4226 3.92592C11.2886 4.09092 11.1162 4.22041 10.9206 4.30302C10.6858 4.40153 10.4269 4.42749 10.1773 4.37755C9.9276 4.32761 9.69848 4.20405 9.51924 4.02269C9.38452 3.88684 9.2814 3.7228 9.21726 3.54229C9.15311 3.36179 9.12953 3.1693 9.14821 2.97859C9.16688 2.78787 9.22735 2.60366 9.32527 2.43913C9.4232 2.2746 9.55617 2.13382 9.71466 2.02687L9.7138 2.02601ZM10.1252 3.41044C10.2057 3.49083 10.3147 3.53586 10.4283 3.53562C10.4845 3.5355 10.5402 3.52427 10.5921 3.50257C10.644 3.48087 10.6911 3.44913 10.7308 3.40915C10.7705 3.36918 10.8019 3.32176 10.8233 3.26959C10.8447 3.21743 10.8557 3.16154 10.8555 3.10513C10.8554 3.04872 10.8442 2.99288 10.8226 2.94081C10.801 2.88873 10.7693 2.84144 10.7295 2.80164C10.6497 2.72112 10.5418 2.67487 10.4286 2.67265C10.3721 2.67254 10.3161 2.68367 10.2639 2.70539C10.2117 2.72712 10.1643 2.75902 10.1244 2.79924C10.0846 2.83946 10.0531 2.88721 10.0317 2.93972C10.0104 2.99223 9.99963 3.04847 10.0001 3.10518C10.0004 3.2197 10.0453 3.32871 10.1252 3.41044ZM2.87742 10.8726H4.4288V11.7368H2.87742C2.60583 11.7344 2.3463 11.624 2.15572 11.4298C1.96441 11.235 1.85725 10.9724 1.85744 10.6989V9.14251C1.74204 9.13864 1.62862 9.11134 1.52403 9.06228C1.41944 9.01321 1.32584 8.94339 1.24889 8.85702C1.16712 8.77393 1.10295 8.6751 1.06024 8.56649C1.01752 8.45788 0.99714 8.34172 1.00032 8.225V6.34871C1.00289 5.94284 1.16318 5.55502 1.44603 5.26696C1.72802 4.98233 2.10944 4.81981 2.50885 4.81723H4.08595C3.87323 5.07139 3.71298 5.36544 3.61454 5.68229H2.50885C2.33489 5.68729 2.16937 5.75863 2.04601 5.88178C1.92483 6.00678 1.85716 6.17434 1.85744 6.34871V8.26799H2.71456V10.6981C2.71257 10.7215 2.71535 10.7451 2.72271 10.7674C2.73008 10.7897 2.74189 10.8103 2.75742 10.8279C2.79187 10.8546 2.83389 10.8697 2.87742 10.8709V10.8726ZM9.13439 5.26782C8.99414 5.12575 8.82729 5.01288 8.64342 4.9357C8.45956 4.85852 8.2623 4.81855 8.06299 4.81809H5.93733C5.53776 4.8213 5.15567 4.98297 4.8745 5.26782C4.59165 5.55588 4.43137 5.9437 4.4288 6.34957V9.08231C4.42759 9.31696 4.51662 9.54303 4.67737 9.71348C4.75441 9.79973 4.84803 9.86947 4.9526 9.91853C5.05718 9.96759 5.17055 9.99494 5.28592 9.99896V11.9965C5.28512 12.1328 5.31121 12.268 5.3627 12.3942C5.41418 12.5204 5.49005 12.6351 5.58591 12.7317C5.7402 12.8762 5.93476 12.9699 6.14304 13H7.85728C8.09837 12.9682 8.31924 12.8482 8.47746 12.663C8.63568 12.4777 8.72006 12.2404 8.7144 11.9965V9.9981C8.8298 9.99423 8.94322 9.96694 9.04782 9.91787C9.15241 9.8688 9.24601 9.79898 9.32296 9.71262C9.40466 9.62965 9.46879 9.53098 9.51151 9.42251C9.55422 9.31405 9.57464 9.19804 9.57152 9.08146V6.34871C9.57211 5.94471 9.41524 5.55735 9.13439 5.26782ZM8.7144 9.12445H7.85728V11.9965C7.85645 12.0418 7.838 12.085 7.80585 12.1169C7.79123 12.1343 7.77277 12.148 7.75194 12.1569C7.73111 12.1659 7.70848 12.1698 7.68586 12.1685H6.30589C6.2611 12.1664 6.2187 12.1476 6.187 12.1158C6.15529 12.084 6.13656 12.0414 6.13447 11.9965V9.12445H5.28592V6.34871C5.28592 6.17415 5.35363 6.00647 5.47449 5.88178C5.59785 5.75863 5.76337 5.68729 5.93733 5.68229H8.06299C8.19283 5.68459 8.31918 5.72487 8.42653 5.79819C8.53387 5.87151 8.61754 5.97468 8.66726 6.09504C8.69989 6.17553 8.71593 6.26182 8.7144 6.34871V9.12445ZM11.1229 11.736H9.57152V10.8718H11.1143C11.1579 10.8705 11.1999 10.8555 11.2343 10.8288C11.2516 10.8118 11.2651 10.7914 11.274 10.7689C11.2828 10.7464 11.2868 10.7223 11.2858 10.6981V8.26799H12.1429V6.34871C12.1432 6.17434 12.0755 6.00678 11.9543 5.88178C11.8309 5.75863 11.6654 5.68729 11.4915 5.68229H10.3858C10.2874 5.36543 10.1271 5.07137 9.91437 4.81723H11.4915C11.8909 4.8209 12.2729 4.98251 12.5543 5.26696C12.8371 5.55502 12.9974 5.94284 13 6.34871V8.225C13 8.45975 12.9117 8.68504 12.7523 8.8553C12.5929 9.02642 12.3752 9.12875 12.1429 9.14165V10.6981C12.1429 10.9724 12.0357 11.2346 11.8446 11.429C11.654 11.6231 11.3945 11.7335 11.1229 11.736ZM3.57168 1.8076C3.31663 1.8073 3.06729 1.88342 2.85564 2.02621C2.64399 2.16899 2.47966 2.37193 2.38371 2.60902C2.28689 2.84602 2.26175 3.10638 2.31144 3.35762C2.36113 3.60886 2.48345 3.83987 2.66314 4.02183C2.84276 4.20358 3.07231 4.32748 3.32246 4.37772C3.57262 4.42795 3.83202 4.40223 4.06754 4.30384C4.30305 4.20546 4.50398 4.03887 4.64467 3.82536C4.78535 3.61185 4.85941 3.36112 4.85736 3.10518C4.85736 2.76122 4.72194 2.43102 4.48023 2.18767C4.36121 2.0674 4.21968 1.97191 4.06376 1.90668C3.90784 1.84146 3.74061 1.80779 3.57168 1.8076ZM3.57168 3.53771C3.51515 3.53782 3.45916 3.5267 3.40695 3.50497C3.35473 3.48324 3.30733 3.45134 3.26748 3.41112C3.22762 3.3709 3.19612 3.32315 3.17477 3.27064C3.15343 3.21813 3.14267 3.16189 3.14312 3.10518C3.14334 2.99098 3.18849 2.88149 3.26874 2.80049C3.34899 2.7195 3.45786 2.67356 3.57168 2.67265C3.68516 2.67466 3.7934 2.72095 3.87341 2.80171C3.95343 2.88246 3.99892 2.99132 4.00024 3.10518C4.00002 3.21938 3.95488 3.32888 3.87463 3.40987C3.79438 3.49086 3.68551 3.5368 3.57168 3.53771Z" fill="#224170" stroke="#224170" stroke-width="0.3"/>
</svg>
