<svg width="13.33" height="15" viewBox="0 0 14 16" fill="none" xmlns="http://www.w3.org/2000/svg">
<path d="M12.3252 11.1333C10.9252 10.4166 9.10855 9.83329 7.00022 9.83329C4.89188 9.83329 3.07522 10.4166 1.67522 11.1333C1.2686 11.3427 0.927968 11.6607 0.691133 12.052C0.454299 12.4433 0.330525 12.8926 0.33355 13.35V15.6666H13.6669V13.35C13.6669 12.4166 13.1585 11.5583 12.3252 11.1333ZM5.33355 8.99996H8.66688C10.0502 8.99996 11.1669 7.88329 11.1669 6.49996C11.1669 5.89163 10.9419 5.33329 10.5752 4.89996C10.6836 4.62496 10.7502 4.31663 10.7502 3.99996C10.7494 3.50497 10.6017 3.02137 10.3257 2.61043C10.0498 2.1995 9.65807 1.87972 9.20022 1.69163C8.66688 1.06663 7.88355 0.666626 7.00022 0.666626C6.11688 0.666626 5.33355 1.06663 4.80022 1.69163C4.34236 1.87972 3.95065 2.1995 3.67471 2.61043C3.39877 3.02137 3.25104 3.50497 3.25022 3.99996C3.25022 4.31663 3.31688 4.62496 3.42522 4.89996C3.05855 5.33329 2.83355 5.89163 2.83355 6.49996C2.83355 7.88329 3.95022 8.99996 5.33355 8.99996Z" fill="#224170"/>
</svg>
