<svg width="19" height="18" viewBox="0 0 19 18" fill="none" xmlns="http://www.w3.org/2000/svg">
<path d="M1.06606 6.27785L6.16233 5.54788L8.4405 0.995934C8.50272 0.871305 8.60509 0.770414 8.73154 0.709088C9.04868 0.554785 9.43406 0.683371 9.59263 0.995934L11.8708 5.54788L16.9671 6.27785C17.1076 6.29764 17.236 6.36292 17.3344 6.46183C17.4533 6.58228 17.5188 6.74433 17.5165 6.91236C17.5143 7.0804 17.4444 7.24068 17.3223 7.35798L13.6351 10.901L14.5062 15.904C14.5267 16.0204 14.5136 16.1401 14.4685 16.2495C14.4234 16.3589 14.3482 16.4537 14.2512 16.5231C14.1542 16.5926 14.0395 16.6338 13.9199 16.6422C13.8004 16.6506 13.6809 16.6258 13.5749 16.5707L9.01656 14.2086L4.45822 16.5707C4.33377 16.636 4.18926 16.6577 4.05076 16.634C3.70151 16.5746 3.46667 16.2482 3.52688 15.904L4.398 10.901L0.710786 7.35798C0.610426 7.26104 0.544189 7.13444 0.524117 6.99596C0.469923 6.64976 0.714801 6.32929 1.06606 6.27785V6.27785Z" stroke="#A6A6A6"/>
</svg>
