<svg width="47" height="48" viewBox="0 0 47 48" fill="none" xmlns="http://www.w3.org/2000/svg">
<path d="M9.87109 38.6894C9.89963 36.5293 10.7775 34.4672 12.3147 32.9494C13.852 31.4315 15.925 30.5799 18.0854 30.5788H27.9563C30.1166 30.5799 32.1897 31.4315 33.7269 32.9494C35.2642 34.4672 36.142 36.5293 36.1706 38.6894C32.5625 41.9408 27.8778 43.7402 23.0208 43.7402C18.1639 43.7402 13.4792 41.9408 9.87109 38.6894ZM30.424 18.2401C30.424 19.7043 29.9898 21.1357 29.1764 22.3531C28.3629 23.5706 27.2067 24.5195 25.8539 25.0798C24.5012 25.6401 23.0126 25.7867 21.5765 25.5011C20.1405 25.2154 18.8213 24.5103 17.786 23.475C16.7506 22.4396 16.0455 21.1205 15.7599 19.6844C15.4742 18.2483 15.6208 16.7598 16.1812 15.407C16.7415 14.0543 17.6904 12.8981 18.9078 12.0846C20.1253 11.2711 21.5566 10.8369 23.0208 10.8369C24.9843 10.8369 26.8673 11.6169 28.2557 13.0053C29.6441 14.3936 30.424 16.2767 30.424 18.2401Z" fill="white"/>
<path d="M40.716 38.693C43.0786 35.8503 44.7219 32.4804 45.5067 28.8684C46.2915 25.2564 46.1948 21.5084 45.2248 17.9417C44.2548 14.3749 42.44 11.0942 39.934 8.37714C37.4279 5.66008 34.3043 3.58657 30.8274 2.33203C27.3505 1.07748 23.6226 0.6788 19.959 1.16971C16.2954 1.66063 12.804 3.0267 9.77999 5.15235C6.75603 7.27801 4.28851 10.1007 2.58617 13.3817C0.88384 16.6627 -0.00322877 20.3054 8.83062e-06 24.0017C0.00125121 29.3751 1.89481 34.5764 5.34841 38.693L5.31551 38.7209C5.43067 38.8591 5.56228 38.9776 5.68073 39.1141C5.8288 39.2836 5.98838 39.4432 6.14138 39.6077C6.60202 40.1078 7.07583 40.5882 7.57266 41.039C7.72402 41.1772 7.88031 41.3055 8.03331 41.4371C8.55976 41.8912 9.10102 42.3222 9.66201 42.7236C9.7344 42.773 9.80021 42.8371 9.87259 42.8881V42.8684C13.7257 45.5799 18.3223 47.0351 23.0338 47.0351C27.7454 47.0351 32.342 45.5799 36.1951 42.8684V42.8881C36.2675 42.8371 36.3316 42.773 36.4057 42.7236C36.965 42.3205 37.5079 41.8912 38.0344 41.4371C38.1874 41.3055 38.3437 41.1755 38.495 41.039C38.9919 40.5865 39.4657 40.1078 39.9263 39.6077C40.0793 39.4432 40.2372 39.2836 40.387 39.1141C40.5038 38.9776 40.637 38.8591 40.7522 38.7193L40.716 38.693ZM23.0322 10.8405C24.4964 10.8405 25.9278 11.2747 27.1452 12.0881C28.3627 12.9016 29.3115 14.0578 29.8719 15.4106C30.4322 16.7634 30.5788 18.2519 30.2932 19.688C30.0075 21.1241 29.3024 22.4432 28.2671 23.4785C27.2317 24.5139 25.9126 25.219 24.4765 25.5046C23.0404 25.7903 21.5519 25.6437 20.1991 25.0833C18.8464 24.523 17.6901 23.5741 16.8767 22.3567C16.0632 21.1392 15.629 19.7079 15.629 18.2437C15.629 16.2802 16.409 14.3972 17.7973 13.0088C19.1857 11.6205 21.0687 10.8405 23.0322 10.8405ZM9.88246 38.693C9.911 36.5328 10.7889 34.4708 12.3261 32.9529C13.8634 31.4351 15.9364 30.5835 18.0967 30.5823H27.9677C30.128 30.5835 32.201 31.4351 33.7383 32.9529C35.2755 34.4708 36.1534 36.5328 36.1819 38.693C32.5738 41.9443 27.8891 43.7437 23.0322 43.7437C18.1753 43.7437 13.4906 41.9443 9.88246 38.693Z" fill="#A6A6A6"/>
</svg>
